# xmcd
# 
# Track frame offsets:
#     150
#     16500
#     43562
#     64355
#     82312
#     98665
#     116085
#     134085
#     158505
#     178480
#     195375
#     212582
#     227535
#     250240
#     272032
#     293807
#     314677
#     331180
# 
# Disc length: 4645
# 
# Revision: 18
# Processed by: cddbd v1.5.2PL0 Copyright (c) Steve Scherf et al.
# Submitted via: fre:ac v1.0.31
# 
DISCID=05122312
DTITLE=Various Artist - WOMAN2 [CD2]
DYEAR=2001
DGENRE=Other
TTITLE0=Vanessa Williams - Alfie
TTITLE1=Deniece Williams - Free
TTITLE2=Oleta Adams - Get Here
TTITLE3=Macy Gray - I Try
TTITLE4=Janet Kay - Lovin' You
TTITLE5=Amel Larrieux - I N I
TTITLE6=Jill Scott - Gettin' In The Way
TTITLE7=Sade - No Ordinary Love
TTITLE8=Jessica Simpson - I Wanna Love You Forever
TTITLE9=VariousGloria Estefan feat. Miami Sound Machine - Anything For You
TTITLE10=Cyndi Lauper - True Colors
TTITLE11=VShania Twain - You're Still The One
TTITLE12=Chanté Moore - This Moment Is Mine
TTITLE13=Martika - Toy Soldiers
TTITLE14=Céline Dion - Think Twice
TTITLE15=Swing Out Sister - Now You're Not Here
TTITLE16=Beverley Craven - Promise Me
TTITLE17=Carole King - (You Make Me Feel Like) A Natural Woman
EXTD=YEAR: 2001
EXTT0=
EXTT1=
EXTT2=
EXTT3=
EXTT4=
EXTT5=
EXTT6=
EXTT7=
EXTT8=
EXTT9=
EXTT10=
EXTT11=
EXTT12=
EXTT13=
EXTT14=
EXTT15=
EXTT16=
EXTT17=
PLAYORDER=
